#!OML:ASF F:\VICON\USERDATA\INSTALL\rory3\rory3.ASF
:FULLY-SPECIFIED
:DEGREES
309
root 0.0328538 17.6656 7.40049 15.1073 -75.9768 -18.1929
lowerback 8.20836 -1.24446 1.22193
upperback -2.39642 -1.43955 1.48106
thorax -7.12042 -0.727774 1.0735
lowerneck -13.117 -6.17846 -14.5625
upperneck -16.0244 -6.14884 14.8507
head -1.6468 -2.89502 6.87566
rclavicle -1.33621e-014 -1.08338e-014
rhumerus 92.6157 -30.9971 -38.8709
rradius 28.8082
rwrist 13.2744
rhand -35.5527 -7.34472
rfingers 7.12502
rthumb -8.67817 -37.1463
lclavicle -1.33621e-014 -1.08338e-014
lhumerus 74.0031 27.6779 19.4371
lradius 34.7499
lwrist -10.4126
lhand -11.3933 31.4026
lfingers 7.12502
lthumb 14.6416 60.8657
rfemur -11.2941 -6.7862 21.2268
rtibia 52.1257
rfoot -0.941639 3.75385
rtoes 7.95299
lfemur -14.4474 2.54535 -15.6589
ltibia 43.2889
lfoot -11.9037 -0.256131
ltoes -19.7612
310
root 0.022389 17.9103 7.40638 15.1233 -75.9766 -17.9618
lowerback 7.93534 -1.17374 1.17972
upperback -2.57623 -1.34741 1.5901
thorax -7.15189 -0.679314 1.19543
lowerneck -13.4105 -6.35922 -15.1688
upperneck -15.2999 -6.27903 15.0693
head -1.3397 -2.9103 7.00742
rclavicle -7.69048e-015 9.59136e-015
rhumerus 92.536 -30.9308 -38.6325
rradius 28.6304
rwrist 13.6268
rhand -35.5131 -7.96493
rfingers 7.12502
rthumb -8.63991 -37.7681
lclavicle -7.69048e-015 9.59136e-015
lhumerus 74.2022 27.5629 19.8275
lradius 33.9051
lwrist -10.7963
lhand -11.1892 31.8691
lfingers 7.12502
lthumb 14.8382 61.3178
rfemur -10.7926 -6.40483 20.7932
rtibia 49.6365
rfoot 2.98315 1.60133
rtoes 10.4707
lfemur -14.2078 1.9819 -15.7282
ltibia 41.6764
lfoot -7.90313 -0.217968
ltoes -22.1372
311
root 0.00864344 18.1541 7.41074 15.1606 -76.0177 -17.6767
lowerback 7.62015 -1.08592 1.09987
upperback -2.77198 -1.23825 1.68113
thorax -7.17614 -0.621204 1.31697
lowerneck -13.6903 -6.51651 -15.4919
upperneck -14.7265 -6.42687 15.0006
head -1.10351 -2.94824 7.00343
rclavicle -4.07509e-015 -4.32357e-015
rhumerus 92.7593 -30.7944 -38.8582
rradius 28.3069
rwrist 14.3472
rhand -35.4148 -8.43214
rfingers 7.12502
rthumb -8.54504 -38.2392
lclavicle -4.07509e-015 -4.32357e-015
lhumerus 74.5096 27.4646 20.2327
lradius 33.153
lwrist -10.8832
lhand -10.9769 32.1661
lfingers 7.12502
lthumb 15.0427 61.5996
rfemur -10.4171 -5.56467 20.3399
rtibia 47.0494
rfoot 6.7675 -1.58628
rtoes 16.2556
lfemur -14.1793 1.41994 -15.7172
ltibia 40.1837
lfoot -3.20843 -0.397285
ltoes -23.843
312
root -0.00489127 18.3836 7.41498 14.5983 -76.1168 -16.7756
lowerback 7.32083 -0.990249 0.897158
upperback -2.93135 -1.13389 1.71762
thorax -7.16969 -0.560665 1.45108
lowerneck -13.8635 -6.28576 -13.8976
upperneck -14.8893 -6.41128 13.0739
head -1.29615 -2.98653 6.12515
rclavicle 9.26212e-015 -2.55935e-015
rhumerus 92.2047 -31.2298 -38.1373
rradius 28.4613
rwrist 13.8649
rhand -35.0091 -8.98318
rfingers 7.12502
rthumb -8.15357 -38.8059
lclavicle 9.26212e-015 -2.55935e-015
lhumerus 75.0041 27.4971 20.7767
lradius 32.3234
lwrist -10.9099
lhand -10.89 32.3276
lfingers 7.12502
lthumb 15.1265 61.7548
rfemur -10.13 -4.44348 19.7224
rtibia 44.5302
rfoot 9.96179 -5.82475
rtoes 22.058
lfemur -14.246 0.777531 -15.8153
ltibia 38.759
lfoot 1.76645 -0.0949973
ltoes -23.4802
313
root -0.0180371 18.6095 7.4209 14.3716 -76.1948 -16.154
lowerback 7.01067 -0.959797 0.797894
upperback -3.13145 -1.1046 1.77767
thorax -7.20128 -0.541218 1.56296
lowerneck -14.3053 -6.36033 -14.0551
upperneck -14.3925 -6.44716 13.0487
head -1.07727 -2.98 6.11514
rclavicle -3.13086e-014 2.07233e-014
rhumerus 93.0813 -30.7957 -39.1434
rradius 27.9207
rwrist 14.6846
rhand -34.6774 -9.02216
rfingers 7.12502
rthumb -7.8334 -38.857
lclavicle -3.13086e-014 2.07233e-014
lhumerus 75.1778 27.6664 21.0625
lradius 31.6583
lwrist -10.9703
lhand -10.9117 32.6777
lfingers 7.12502
lthumb 15.1055 62.1065
rfemur -9.98281 -3.28902 19.1812
rtibia 42.246
rfoot 12.2889 -10.0157
rtoes 26.3872
lfemur -14.5121 -0.116522 -15.7792
ltibia 37.4033
lfoot 6.67564 1.36086
ltoes -22.7439
314
root -0.0300976 18.8403 7.42549 14.5012 -76.1785 -15.8771
lowerback 6.8025 -0.976877 0.771307
upperback -3.38965 -1.12774 1.86725
thorax -7.35389 -0.549846 1.67585
lowerneck -14.748 -6.41669 -14.1939
upperneck -13.8899 -6.46283 12.9685
head -0.863563 -2.96426 6.08649
rclavicle -5.24916e-015 -8.39865e-015
rhumerus 93.9701 -30.334 -40.1721
rradius 27.2686
rwrist 15.3541
rhand -34.5536 -8.64642
rfingers 7.12502
rthumb -7.71395 -38.4857
lclavicle -5.24916e-015 -8.39865e-015
lhumerus 75.2258 27.8466 21.2619
lradius 31.1101
lwrist -10.9168
lhand -10.9436 33.2859
lfingers 7.12502
lthumb 15.0748 62.717
rfemur -9.95964 -2.00015 18.8033
rtibia 40.3487
rfoot 13.9203 -12.7063
rtoes 28.2773
lfemur -14.9064 -1.15989 -15.5589
ltibia 36.222
lfoot 10.9145 3.75068
ltoes -21.8733
315
root -0.039749 19.0675 7.42937 15.1641 -76.159 -16.0254
lowerback 6.47137 -0.961506 0.907225
upperback -3.65744 -1.09668 1.92919
thorax -7.45054 -0.541341 1.65877
lowerneck -15.0848 -6.53036 -14.4492
upperneck -13.5036 -6.5361 13.0996
head -0.676129 -2.97773 6.14612
rclavicle -6.18096e-015 2.39536e-014
rhumerus 94.1258 -30.3854 -40.4816
rradius 27.0778
rwrist 15.4301
rhand -34.3777 -8.58054
rfingers 7.12502
rthumb -7.54417 -38.426
lclavicle -6.18096e-015 2.39536e-014
lhumerus 75.6235 28.0756 21.5924
lradius 30.4004
lwrist -10.7262
lhand -11.126 33.5194
lfingers 7.12502
lthumb 14.8991 62.9636
rfemur -10.1795 -0.418458 18.5631
rtibia 38.8743
rfoot 15.1049 -13.8453
rtoes 29.2917
lfemur -15.4746 -2.10088 -15.2168
ltibia 35.3082
lfoot 14.0892 6.2565
ltoes -18.5703
316
root -0.0402422 19.2766 7.43349 16.0132 -76.1695 -16.3154
lowerback 6.13439 -0.909671 1.14066
upperback -3.94585 -1.01195 1.94002
thorax -7.56957 -0.513537 1.52709
lowerneck -15.2931 -6.64576 -14.5918
upperneck -13.2248 -6.64151 13.1942
head -0.539907 -3.01566 6.17917
rclavicle -4.00178e-014 -2.9122e-014
rhumerus 94.6767 -30.3641 -41.3549
rradius 26.6946
rwrist 16.1569
rhand -33.8817 -8.82433
rfingers 7.12502
rthumb -7.06542 -38.6864
lclavicle -4.00178e-014 -2.9122e-014
lhumerus 76.3697 28.2849 22.2825
lradius 29.605
lwrist -10.6958
lhand -11.4478 33.6223
lfingers 7.12502
lthumb 14.5891 63.0892
rfemur -10.5267 0.981032 18.3669
rtibia 37.7944
rfoot 15.6433 -14.1645
rtoes 31.0347
lfemur -16.1531 -2.21283 -14.8915
ltibia 34.7104
lfoot 16.4964 6.99362
ltoes -14.4606
317
root -0.034458 19.4764 7.43946 16.2709 -76.2563 -15.9546
lowerback 5.81351 -0.85246 1.19142
upperback -4.24327 -0.938847 1.9316
thorax -7.70409 -0.483041 1.4802
lowerneck -15.4111 -6.68336 -14.551
upperneck -13.1217 -6.68768 13.1092
head -0.493025 -3.03557 6.13651
rclavicle -8.3738e-015 -9.14409e-015
rhumerus 95.4127 -30.2305 -42.4633
rradius 26.1843
rwrist 16.75
rhand -33.8977 -8.87002
rfingers 7.12502
rthumb -7.0808 -38.7316
lclavicle -8.3738e-015 -9.14409e-015
lhumerus 77.2911 28.5285 23.3614
lradius 28.8739
lwrist -10.9196
lhand -11.4808 33.9614
lfingers 7.12502
lthumb 14.5573 63.4306
rfemur -10.9524 2.38679 18.0158
rtibia 37.0198
rfoot 14.3515 -15.1371
rtoes 32.3819
lfemur -16.8837 -1.44412 -14.8271
ltibia 34.4171
lfoot 17.7911 5.89126
ltoes -10.8661
318
root -0.022031 19.6716 7.44456 17.1068 -76.3011 -16.2288
lowerback 5.59203 -0.833926 1.43826
upperback -4.51588 -0.897815 1.9316
thorax -7.87297 -0.47919 1.33817
lowerneck -15.6111 -6.65369 -14.3487
upperneck -12.9582 -6.66445 12.9477
head -0.434448 -3.02564 6.04489
rclavicle 1.02498e-014 6.06293e-015
rhumerus 96.4287 -29.8874 -43.7897
rradius 25.4928
rwrist 17.0453
rhand -34.2326 -8.7542
rfingers 7.12502
rthumb -7.40413 -38.6046
lclavicle 1.02498e-014 6.06293e-015
lhumerus 78.4669 28.8206 24.6234
lradius 28.0468
lwrist -11.2516
lhand -11.4468 34.1539
lfingers 7.12502
lthumb 14.5901 63.6208
rfemur -11.3289 3.96948 17.8504
rtibia 36.4518
rfoot 10.8641 -17.2762
rtoes 30.8731
lfemur -17.5795 -0.580607 -14.6442
ltibia 34.3714
lfoot 17.4844 4.53397
ltoes -8.82607
319
root -0.00291673 19.8522 7.44613 18.1871 -76.3027 -16.8388
lowerback 5.49168 -0.810014 1.7289
upperback -4.72067 -0.839859 1.97995
thorax -8.04011 -0.468435 1.22178
lowerneck -16.0467 -7.04926 -16.2711
upperneck -12.1655 -6.78183 14.8467
head 0.0561547 -2.98821 6.92804
rclavicle -8.84592e-015 -5.46658e-015
rhumerus 96.5899 -30.1658 -43.868
rradius 25.3406
rwrist 16.1267
rhand -34.1784 -8.9793
rfingers 7.12502
rthumb -7.35173 -38.8316
lclavicle -8.84592e-015 -5.46658e-015
lhumerus 79.7865 29.2202 25.9945
lradius 27.1943
lwrist -11.4135
lhand -11.3694 34.3394
lfingers 7.12502
lthumb 14.6646 63.8008
rfemur -11.6189 5.23074 17.7439
rtibia 36.0188
rfoot 6.24577 -19.6076
rtoes 25.9358
lfemur -18.0995 0.0481339 -14.3986
ltibia 34.4439
lfoot 16.1274 3.40474
ltoes -9.94576
320
root 0.0198739 20.0182 7.44384 18.9993 -76.3328 -17.3567
lowerback 5.58698 -0.778145 1.95929
upperback -4.87568 -0.771837 1.9875
thorax -8.26782 -0.450271 1.0978
lowerneck -16.2643 -7.18001 -16.8516
upperneck -11.885 -6.82212 15.4976
head 0.237175 -2.97573 7.21984
rclavicle -5.66536e-014 2.13694e-014
rhumerus 97.5239 -29.8911 -45.114
rradius 24.9154
rwrist 16.462
rhand -34.1025 -9.25527
rfingers 7.12502
rthumb -7.27847 -39.1101
lclavicle -5.66536e-014 2.13694e-014
lhumerus 81.2105 29.5667 27.4446
lradius 26.384
lwrist -11.4101
lhand -11.45 34.4354
lfingers 7.12502
lthumb 14.587 63.9025
rfemur -11.7171 6.14818 17.6066
rtibia 35.6609
rfoot 2.13217 -21.049
rtoes 21.6351
lfemur -18.359 0.926608 -14.1912
ltibia 34.5718
lfoot 14.5825 2.10728
ltoes -12.4
321
root 0.0466582 20.1752 7.43969 18.7417 -76.3615 -16.8639
lowerback 5.77433 -0.790132 1.98028
upperback -5.0076 -0.784078 1.89482
thorax -8.52246 -0.461711 0.996534
lowerneck -16.335 -7.13974 -16.7135
upperneck -11.9375 -6.78228 15.4672
head 0.219835 -2.96048 7.19062
rclavicle 2.13694e-014 -6.75868e-015
rhumerus 98.4817 -29.4966 -46.5481
rradius 24.5885
rwrist 17.0412
rhand -33.9226 -9.73177
rfingers 7.12502
rthumb -7.10484 -39.5925
lclavicle 2.13694e-014 -6.75868e-015
lhumerus 82.692 29.8486 28.9067
lradius 25.6478
lwrist -11.5835
lhand -11.4694 34.5948
lfingers 7.12502
lthumb 14.5682 64.0632
rfemur -11.6967 6.9471 17.2448
rtibia 35.3829
rfoot -0.854323 -21.0844
rtoes 22.7773
lfemur -18.4746 1.53068 -14.2244
ltibia 34.7072
lfoot 13.0604 1.21976
ltoes -16.3243
322
root 0.0753562 20.3255 7.43631 17.6912 -76.3255 -15.7353
lowerback 6.19192 -0.829328 1.80338
upperback -5.10926 -0.843193 1.81752
thorax -8.87715 -0.482343 1.03275
lowerneck -16.2254 -7.07887 -16.557
upperneck -12.2525 -6.73845 15.3232
head 0.0898192 -2.95261 7.13252
rclavicle -1.85367e-014 2.5842e-015
rhumerus 97.312 -30.6321 -44.8648
rradius 25.2919
rwrist 14.7867
rhand -33.0757 -10.8599
rfingers 7.12502
rthumb -6.28728 -40.7466
lclavicle -1.85367e-014 2.5842e-015
lhumerus 84.17 30.0956 30.4534
lradius 25.0319
lwrist -11.4871
lhand -11.5004 35.0366
lfingers 7.12502
lthumb 14.5384 64.5072
rfemur -11.5054 7.32666 16.7715
rtibia 35.1843
rfoot -1.86108 -20.1234
rtoes 24.7847
lfemur -18.368 1.74116 -14.3894
ltibia 34.8274
lfoot 11.653 0.979773
ltoes -20.2454
323
root 0.102605 20.4642 7.43467 16.6844 -76.3062 -14.6151
lowerback 6.49725 -0.874204 1.54143
upperback -5.17924 -0.919288 1.82408
thorax -9.12895 -0.502243 1.20566
lowerneck -15.9875 -6.99531 -16.5823
upperneck -12.7259 -6.64709 15.2688
head -0.101761 -2.91959 7.14525
rclavicle -1.17407e-014 -1.92821e-014
rhumerus 98.6697 -29.843 -46.4445
rradius 24.7892
rwrist 15.8942
rhand -32.9969 -11.1842
rfingers 7.12502
rthumb -6.21121 -41.0732
lclavicle -1.17407e-014 -1.92821e-014
lhumerus 85.7117 30.3481 32.3231
lradius 24.5229
lwrist -11.4383
lhand -11.2448 35.2884
lfingers 7.12502
lthumb 14.7846 64.7411
rfemur -11.4352 7.32037 16.2584
rtibia 35.0642
rfoot -1.33614 -19.0266
rtoes 22.7332
lfemur -18.2667 2.18027 -14.5774
ltibia 34.9105
lfoot 10.5627 0.903001
ltoes -20.1405
